<mxfile host="app.diagrams.net" modified="2022-08-11T09:26:05.301Z" agent="5.0 (X11)" etag="1Qu11eZk-KM4A6nbrn48" version="20.0.3" type="github">
  <diagram id="6VI8Z5PdZOgqrNz4SOT9" name="Page-1">
    <mxGraphModel dx="1578" dy="1009" grid="1" gridSize="10" guides="1" tooltips="1" connect="1" arrows="1" fold="1" page="1" pageScale="1" pageWidth="1600" pageHeight="900" math="0" shadow="0">
      <root>
        <mxCell id="0" />
        <mxCell id="1" parent="0" />
        <mxCell id="bZjm73M1h2RljOWKBALK-65" value="" style="rounded=0;whiteSpace=wrap;html=1;fontFamily=Garamond;fontSize=18;strokeColor=#36393d;fillColor=#eeeeee;" vertex="1" parent="1">
          <mxGeometry x="170" y="160" width="810" height="340" as="geometry" />
        </mxCell>
        <mxCell id="bZjm73M1h2RljOWKBALK-21" value="Conv 7x7, 64" style="rounded=0;whiteSpace=wrap;html=1;fontSize=18;fillColor=#fff2cc;direction=west;horizontal=0;strokeColor=#d6b656;fontFamily=Garamond;" vertex="1" parent="1">
          <mxGeometry x="190" y="240" width="40" height="190" as="geometry" />
        </mxCell>
        <mxCell id="bZjm73M1h2RljOWKBALK-58" style="edgeStyle=orthogonalEdgeStyle;rounded=0;orthogonalLoop=1;jettySize=auto;html=1;entryX=0.5;entryY=1;entryDx=0;entryDy=0;fontFamily=Garamond;fontSize=18;" edge="1" parent="1" source="bZjm73M1h2RljOWKBALK-22" target="bZjm73M1h2RljOWKBALK-23">
          <mxGeometry relative="1" as="geometry">
            <Array as="points">
              <mxPoint x="300" y="220" />
              <mxPoint x="350" y="220" />
            </Array>
          </mxGeometry>
        </mxCell>
        <mxCell id="bZjm73M1h2RljOWKBALK-22" value="&lt;div&gt;Conv 1x1, 64&lt;/div&gt;" style="rounded=0;whiteSpace=wrap;html=1;fontSize=18;fillColor=#dae8fc;direction=west;horizontal=0;strokeColor=#6c8ebf;fontFamily=Garamond;" vertex="1" parent="1">
          <mxGeometry x="280" y="240" width="40" height="190" as="geometry" />
        </mxCell>
        <mxCell id="bZjm73M1h2RljOWKBALK-23" value="Conv 1x1, 64" style="rounded=0;whiteSpace=wrap;html=1;fontSize=18;fillColor=#dae8fc;direction=west;horizontal=0;strokeColor=#6c8ebf;fontFamily=Garamond;" vertex="1" parent="1">
          <mxGeometry x="330" y="240" width="40" height="190" as="geometry" />
        </mxCell>
        <mxCell id="bZjm73M1h2RljOWKBALK-57" style="edgeStyle=orthogonalEdgeStyle;rounded=0;orthogonalLoop=1;jettySize=auto;html=1;entryX=0.5;entryY=1;entryDx=0;entryDy=0;fontFamily=Garamond;fontSize=18;" edge="1" parent="1" source="bZjm73M1h2RljOWKBALK-24" target="bZjm73M1h2RljOWKBALK-25">
          <mxGeometry relative="1" as="geometry">
            <Array as="points">
              <mxPoint x="400" y="220" />
              <mxPoint x="480" y="220" />
            </Array>
          </mxGeometry>
        </mxCell>
        <mxCell id="bZjm73M1h2RljOWKBALK-24" value="&lt;div&gt;Conv 1x1, 256&lt;/div&gt;" style="rounded=0;whiteSpace=wrap;html=1;fontSize=18;fillColor=#dae8fc;direction=west;horizontal=0;strokeColor=#6c8ebf;fontFamily=Garamond;" vertex="1" parent="1">
          <mxGeometry x="380" y="240" width="40" height="190" as="geometry" />
        </mxCell>
        <mxCell id="bZjm73M1h2RljOWKBALK-25" value="Conv 1x1, 128" style="rounded=0;whiteSpace=wrap;html=1;fontSize=18;fillColor=#f8cecc;direction=west;horizontal=0;strokeColor=#b85450;fontFamily=Garamond;" vertex="1" parent="1">
          <mxGeometry x="460" y="240" width="40" height="190" as="geometry" />
        </mxCell>
        <mxCell id="bZjm73M1h2RljOWKBALK-59" style="edgeStyle=orthogonalEdgeStyle;rounded=0;orthogonalLoop=1;jettySize=auto;html=1;entryX=0.75;entryY=1;entryDx=0;entryDy=0;fontFamily=Garamond;fontSize=18;" edge="1" parent="1" source="bZjm73M1h2RljOWKBALK-26" target="bZjm73M1h2RljOWKBALK-27">
          <mxGeometry relative="1" as="geometry">
            <Array as="points">
              <mxPoint x="530" y="220" />
              <mxPoint x="570" y="220" />
            </Array>
          </mxGeometry>
        </mxCell>
        <mxCell id="bZjm73M1h2RljOWKBALK-26" value="Conv 3x3, 128" style="rounded=0;whiteSpace=wrap;html=1;fontSize=18;fillColor=#f8cecc;direction=west;horizontal=0;strokeColor=#b85450;fontFamily=Garamond;" vertex="1" parent="1">
          <mxGeometry x="510" y="240" width="40" height="190" as="geometry" />
        </mxCell>
        <mxCell id="bZjm73M1h2RljOWKBALK-27" value="Conv 1x1, 512" style="rounded=0;whiteSpace=wrap;html=1;fontSize=18;fillColor=#f8cecc;direction=west;horizontal=0;strokeColor=#b85450;fontFamily=Garamond;" vertex="1" parent="1">
          <mxGeometry x="560" y="240" width="40" height="190" as="geometry" />
        </mxCell>
        <mxCell id="bZjm73M1h2RljOWKBALK-60" style="edgeStyle=orthogonalEdgeStyle;rounded=0;orthogonalLoop=1;jettySize=auto;html=1;entryX=0.5;entryY=1;entryDx=0;entryDy=0;fontFamily=Garamond;fontSize=18;" edge="1" parent="1" source="bZjm73M1h2RljOWKBALK-28" target="bZjm73M1h2RljOWKBALK-29">
          <mxGeometry relative="1" as="geometry">
            <Array as="points">
              <mxPoint x="660" y="220" />
              <mxPoint x="710" y="220" />
            </Array>
          </mxGeometry>
        </mxCell>
        <mxCell id="bZjm73M1h2RljOWKBALK-28" value="Conv 1x1, 256" style="rounded=0;whiteSpace=wrap;html=1;fontSize=18;fillColor=#ffe6cc;direction=west;horizontal=0;strokeColor=#d79b00;fontFamily=Garamond;" vertex="1" parent="1">
          <mxGeometry x="640" y="240" width="40" height="190" as="geometry" />
        </mxCell>
        <mxCell id="bZjm73M1h2RljOWKBALK-29" value="Conv 3x3, 256" style="rounded=0;whiteSpace=wrap;html=1;fontSize=18;fillColor=#ffe6cc;direction=west;horizontal=0;strokeColor=#d79b00;fontFamily=Garamond;" vertex="1" parent="1">
          <mxGeometry x="690" y="240" width="40" height="190" as="geometry" />
        </mxCell>
        <mxCell id="bZjm73M1h2RljOWKBALK-61" style="edgeStyle=orthogonalEdgeStyle;rounded=0;orthogonalLoop=1;jettySize=auto;html=1;entryX=0.5;entryY=1;entryDx=0;entryDy=0;fontFamily=Garamond;fontSize=18;" edge="1" parent="1" source="bZjm73M1h2RljOWKBALK-30" target="bZjm73M1h2RljOWKBALK-31">
          <mxGeometry relative="1" as="geometry">
            <Array as="points">
              <mxPoint x="760" y="220" />
              <mxPoint x="840" y="220" />
            </Array>
          </mxGeometry>
        </mxCell>
        <mxCell id="bZjm73M1h2RljOWKBALK-30" value="Conv 1x1, 1024" style="rounded=0;whiteSpace=wrap;html=1;fontSize=18;fillColor=#ffe6cc;direction=west;horizontal=0;strokeColor=#d79b00;fontFamily=Garamond;" vertex="1" parent="1">
          <mxGeometry x="740" y="240" width="40" height="190" as="geometry" />
        </mxCell>
        <mxCell id="bZjm73M1h2RljOWKBALK-31" value="Conv 1x1, 512" style="rounded=0;whiteSpace=wrap;html=1;fontSize=18;fillColor=#d5e8d4;direction=west;horizontal=0;strokeColor=#82b366;fontFamily=Garamond;" vertex="1" parent="1">
          <mxGeometry x="820" y="240" width="40" height="190" as="geometry" />
        </mxCell>
        <mxCell id="bZjm73M1h2RljOWKBALK-62" style="edgeStyle=orthogonalEdgeStyle;rounded=0;orthogonalLoop=1;jettySize=auto;html=1;entryX=0.75;entryY=1;entryDx=0;entryDy=0;fontFamily=Garamond;fontSize=18;" edge="1" parent="1" source="bZjm73M1h2RljOWKBALK-32" target="bZjm73M1h2RljOWKBALK-33">
          <mxGeometry relative="1" as="geometry">
            <Array as="points">
              <mxPoint x="890" y="220" />
              <mxPoint x="930" y="220" />
            </Array>
          </mxGeometry>
        </mxCell>
        <mxCell id="bZjm73M1h2RljOWKBALK-32" value="Conv 3x3, 512" style="rounded=0;whiteSpace=wrap;html=1;fontSize=18;fillColor=#d5e8d4;direction=west;horizontal=0;strokeColor=#82b366;fontFamily=Garamond;" vertex="1" parent="1">
          <mxGeometry x="870" y="240" width="40" height="190" as="geometry" />
        </mxCell>
        <mxCell id="bZjm73M1h2RljOWKBALK-33" value="Conv 1x1, 2048" style="rounded=0;whiteSpace=wrap;html=1;fontSize=18;fillColor=#d5e8d4;direction=west;horizontal=0;strokeColor=#82b366;fontFamily=Garamond;" vertex="1" parent="1">
          <mxGeometry x="920" y="240" width="40" height="190" as="geometry" />
        </mxCell>
        <mxCell id="bZjm73M1h2RljOWKBALK-36" value="3x" style="text;html=1;align=center;verticalAlign=middle;resizable=0;points=[];autosize=1;strokeColor=none;fillColor=none;fontSize=18;fontFamily=Garamond;" vertex="1" parent="1">
          <mxGeometry x="325" y="430" width="50" height="40" as="geometry" />
        </mxCell>
        <mxCell id="bZjm73M1h2RljOWKBALK-37" value="4x" style="text;html=1;align=center;verticalAlign=middle;resizable=0;points=[];autosize=1;strokeColor=none;fillColor=none;fontSize=18;fontFamily=Garamond;" vertex="1" parent="1">
          <mxGeometry x="500" y="430" width="50" height="40" as="geometry" />
        </mxCell>
        <mxCell id="bZjm73M1h2RljOWKBALK-38" value="6x" style="text;html=1;align=center;verticalAlign=middle;resizable=0;points=[];autosize=1;strokeColor=none;fillColor=none;fontSize=18;fontFamily=Garamond;" vertex="1" parent="1">
          <mxGeometry x="685" y="430" width="50" height="40" as="geometry" />
        </mxCell>
        <mxCell id="bZjm73M1h2RljOWKBALK-39" value="3x" style="text;html=1;align=center;verticalAlign=middle;resizable=0;points=[];autosize=1;strokeColor=none;fillColor=none;fontSize=18;fontFamily=Garamond;" vertex="1" parent="1">
          <mxGeometry x="865" y="430" width="50" height="40" as="geometry" />
        </mxCell>
        <mxCell id="bZjm73M1h2RljOWKBALK-53" value="" style="endArrow=classic;html=1;rounded=0;fontFamily=Garamond;fontSize=18;entryX=1;entryY=0.5;entryDx=0;entryDy=0;" edge="1" parent="1" source="bZjm73M1h2RljOWKBALK-24" target="bZjm73M1h2RljOWKBALK-25">
          <mxGeometry width="50" height="50" relative="1" as="geometry">
            <mxPoint x="810" y="590" as="sourcePoint" />
            <mxPoint x="860" y="540" as="targetPoint" />
          </mxGeometry>
        </mxCell>
        <mxCell id="bZjm73M1h2RljOWKBALK-54" value="" style="endArrow=classic;html=1;rounded=0;fontFamily=Garamond;fontSize=18;entryX=1;entryY=0.5;entryDx=0;entryDy=0;exitX=0;exitY=0.5;exitDx=0;exitDy=0;" edge="1" parent="1" source="bZjm73M1h2RljOWKBALK-27" target="bZjm73M1h2RljOWKBALK-28">
          <mxGeometry width="50" height="50" relative="1" as="geometry">
            <mxPoint x="430" y="345" as="sourcePoint" />
            <mxPoint x="470" y="345" as="targetPoint" />
          </mxGeometry>
        </mxCell>
        <mxCell id="bZjm73M1h2RljOWKBALK-55" value="" style="endArrow=classic;html=1;rounded=0;fontFamily=Garamond;fontSize=18;exitX=0;exitY=0.5;exitDx=0;exitDy=0;" edge="1" parent="1" source="bZjm73M1h2RljOWKBALK-30" target="bZjm73M1h2RljOWKBALK-31">
          <mxGeometry width="50" height="50" relative="1" as="geometry">
            <mxPoint x="610" y="345" as="sourcePoint" />
            <mxPoint x="650" y="345" as="targetPoint" />
          </mxGeometry>
        </mxCell>
        <mxCell id="bZjm73M1h2RljOWKBALK-64" value="" style="endArrow=classic;html=1;rounded=0;fontFamily=Garamond;fontSize=18;exitX=0;exitY=0.5;exitDx=0;exitDy=0;entryX=1;entryY=0.5;entryDx=0;entryDy=0;" edge="1" parent="1" source="bZjm73M1h2RljOWKBALK-21" target="bZjm73M1h2RljOWKBALK-22">
          <mxGeometry width="50" height="50" relative="1" as="geometry">
            <mxPoint x="810" y="590" as="sourcePoint" />
            <mxPoint x="860" y="540" as="targetPoint" />
          </mxGeometry>
        </mxCell>
      </root>
    </mxGraphModel>
  </diagram>
</mxfile>
